{"scene":0,"asset":{"generator":"ImageToStl.com","version":"2.0"},"scenes":[{"name":"Scene","nodes":[0]}],"nodes":[{"name":"Node0","children":[1,2,3,4,5,6,7,8,9,10,11,12,13,14,15,16,17,18,19,20]},{"name":"Node1","mesh":0},{"name":"Node2","mesh":1},{"name":"Node3","mesh":2},{"name":"Node4","mesh":3},{"name":"Node5","mesh":4},{"name":"Node6","mesh":5},{"name":"Node7","mesh":6},{"name":"Node8","mesh":7},{"name":"Node9","mesh":8},{"name":"Node10","mesh":9},{"name":"Node11","mesh":10},{"name":"Node12","mesh":11},{"name":"Node13","mesh":12},{"name":"Node14","mesh":13},{"name":"Node15","mesh":14},{"name":"Node16","mesh":15},{"name":"Node17","mesh":16},{"name":"Node18","mesh":17},{"name":"Node19","mesh":18},{"name":"Node20","mesh":19}],"materials":[{"name":"Material","pbrMetallicRoughness":{"baseColorFactor":[0.8,0.8,0.8,1.0],"metallicFactor":0.5,"roughnessFactor":0.75},"emissiveFactor":[0.0,0.0,0.0],"doubleSided":true},{"name":"Material.001","pbrMetallicRoughness":{"baseColorFactor":[0.8,0.8,0.8,1.0],"metallicFactor":0.5,"roughnessFactor":0.75},"emissiveFactor":[0.0,0.0,0.0],"doubleSided":true},{"name":"Material_1","pbrMetallicRoughness":{"baseColorFactor":[0.933333,0.913725,0.807843,1.0],"metallicFactor":0.0,"roughnessFactor":1.0},"emissiveFactor":[0.0,0.0,0.0],"doubleSided":true},{"name":"Material_2","pbrMetallicRoughness":{"baseColorFactor":[0.4,1.0,0.2,1.0],"metallicFactor":0.0,"roughnessFactor":1.0},"emissiveFactor":[0.0,0.0,0.0],"doubleSided":true},{"name":"Material_3","pbrMetallicRoughness":{"baseColorFactor":[0.0,0.0,0.0,1.0],"metallicFactor":0.0,"roughnessFactor":1.0},"emissiveFactor":[0.0,0.0,0.0],"doubleSided":true},{"name":"Material_4","pbrMetallicRoughness":{"baseColorFactor":[1.0,1.0,1.0,1.0],"metallicFactor":0.0,"roughnessFactor":1.0},"emissiveFactor":[0.0,0.0,0.0],"doubleSided":true}],"meshes":[{"name":"Mesh0","primitives":[{"indices":3,"material":0,"attributes":{"POSITION":0,"NORMAL":1,"TEXCOORD_0":2}}]},{"name":"Mesh0","primitives":[{"indices":7,"material":1,"attributes":{"POSITION":4,"NORMAL":5,"TEXCOORD_0":6}}]},{"name":"Mesh0","primitives":[{"indices":10,"material":2,"attributes":{"POSITION":8,"NORMAL":9}}]},{"name":"Mesh0","primitives":[{"indices":13,"material":3,"attributes":{"POSITION":11,"NORMAL":12}}]},{"name":"Mesh0","primitives":[{"indices":16,"material":2,"attributes":{"POSITION":14,"NORMAL":15}}]},{"name":"Mesh0","primitives":[{"indices":19,"material":3,"attributes":{"POSITION":17,"NORMAL":18}}]},{"name":"Mesh0","primitives":[{"indices":22,"material":2,"attributes":{"POSITION":20,"NORMAL":21}}]},{"name":"Mesh0","primitives":[{"indices":25,"material":2,"attributes":{"POSITION":23,"NORMAL":24}}]},{"name":"Mesh0","primitives":[{"indices":28,"material":3,"attributes":{"POSITION":26,"NORMAL":27}}]},{"name":"Mesh0","primitives":[{"indices":31,"material":2,"attributes":{"POSITION":29,"NORMAL":30}}]},{"name":"Mesh0","primitives":[{"indices":34,"material":4,"attributes":{"POSITION":32,"NORMAL":33}}]},{"name":"Mesh0","primitives":[{"indices":37,"material":2,"attributes":{"POSITION":35,"NORMAL":36}}]},{"name":"Mesh0","primitives":[{"indices":40,"material":2,"attributes":{"POSITION":38,"NORMAL":39}}]},{"name":"Mesh0","primitives":[{"indices":43,"material":5,"attributes":{"POSITION":41,"NORMAL":42}}]},{"name":"Mesh0","primitives":[{"indices":46,"material":4,"attributes":{"POSITION":44,"NORMAL":45}}]},{"name":"Mesh0","primitives":[{"indices":49,"material":4,"attributes":{"POSITION":47,"NORMAL":48}}]},{"name":"Mesh0","primitives":[{"indices":52,"material":4,"attributes":{"POSITION":50,"NORMAL":51}}]},{"name":"Mesh0","primitives":[{"indices":55,"material":5,"attributes":{"POSITION":53,"NORMAL":54}}]},{"name":"Mesh0","primitives":[{"indices":58,"material":4,"attributes":{"POSITION":56,"NORMAL":57}}]},{"name":"Mesh0","primitives":[{"indices":61,"material":4,"attributes":{"POSITION":59,"NORMAL":60}}]}],"accessors":[{"bufferView":0,"componentType":5126,"count":14,"type":"VEC3","min":[-1.0,-1.0,-1.0],"max":[1.0,1.0,1.0]},{"bufferView":1,"componentType":5126,"count":14,"type":"VEC3"},{"bufferView":2,"componentType":5126,"count":14,"type":"VEC2"},{"bufferView":3,"componentType":5123,"count":108,"type":"SCALAR"},{"bufferView":4,"componentType":5126,"count":14,"type":"VEC3","min":[-1.0,-1.0000001,-1.0000001],"max":[1.0,1.0000001,1.0000001]},{"bufferView":5,"componentType":5126,"count":14,"type":"VEC3"},{"bufferView":6,"componentType":5126,"count":14,"type":"VEC2"},{"bufferView":7,"componentType":5123,"count":108,"type":"SCALAR"},{"bufferView":8,"componentType":5126,"count":838,"type":"VEC3","min":[-37.9692,-37.999992,2.12322],"max":[37.9692,38.000008,78.0]},{"bufferView":9,"componentType":5126,"count":838,"type":"VEC3"},{"bufferView":10,"componentType":5123,"count":4446,"type":"SCALAR"},{"bufferView":11,"componentType":5126,"count":260,"type":"VEC3","min":[-30.0,18.8058,9.999987],"max":[30.0,91.70371,70.0]},{"bufferView":12,"componentType":5126,"count":260,"type":"VEC3"},{"bufferView":13,"componentType":5123,"count":762,"type":"SCALAR"},{"bufferView":14,"componentType":5126,"count":469,"type":"VEC3","min":[-60.9619,45.228306,29.556892],"max":[-45.9815,63.861607,49.524494]},{"bufferView":15,"componentType":5126,"count":469,"type":"VEC3"},{"bufferView":16,"componentType":5123,"count":2340,"type":"SCALAR"},{"bufferView":17,"componentType":5126,"count":260,"type":"VEC3","min":[-55.9881,30.202808,29.535593],"max":[-19.9861,62.560307,49.578194]},{"bufferView":18,"componentType":5126,"count":260,"type":"VEC3"},{"bufferView":19,"componentType":5123,"count":762,"type":"SCALAR"},{"bufferView":20,"componentType":5126,"count":18,"type":"VEC3","min":[-35.6598,-44.206093,39.9799],"max":[-5.56101,-15.047592,49.979908]},{"bufferView":21,"componentType":5126,"count":18,"type":"VEC3"},{"bufferView":22,"componentType":5123,"count":24,"type":"SCALAR"},{"bufferView":23,"componentType":5126,"count":469,"type":"VEC3","min":[1.9396,91.7037,28.129786],"max":[28.6819,105.086,54.850384]},{"bufferView":24,"componentType":5126,"count":469,"type":"VEC3"},{"bufferView":25,"componentType":5123,"count":2340,"type":"SCALAR"},{"bufferView":26,"componentType":5126,"count":260,"type":"VEC3","min":[19.9861,30.202808,29.535593],"max":[55.9881,62.560307,49.578194]},{"bufferView":27,"componentType":5126,"count":260,"type":"VEC3"},{"bufferView":28,"componentType":5123,"count":762,"type":"SCALAR"},{"bufferView":29,"componentType":5126,"count":469,"type":"VEC3","min":[45.9815,45.228306,29.556892],"max":[60.9619,63.861607,49.524494]},{"bufferView":30,"componentType":5126,"count":469,"type":"VEC3"},{"bufferView":31,"componentType":5123,"count":2340,"type":"SCALAR"},{"bufferView":32,"componentType":5126,"count":462,"type":"VEC3","min":[-17.9542,31.2085,9.096877],"max":[16.4082,88.2377,29.096897]},{"bufferView":33,"componentType":5126,"count":462,"type":"VEC3"},{"bufferView":34,"componentType":5123,"count":900,"type":"SCALAR"},{"bufferView":35,"componentType":5126,"count":469,"type":"VEC3","min":[-29.1649,91.7037,28.129786],"max":[-2.42258,105.086,54.850384]},{"bufferView":36,"componentType":5126,"count":469,"type":"VEC3"},{"bufferView":37,"componentType":5123,"count":2340,"type":"SCALAR"},{"bufferView":38,"componentType":5126,"count":18,"type":"VEC3","min":[5.56101,-44.206093,39.9799],"max":[35.6598,-15.047592,49.979908]},{"bufferView":39,"componentType":5126,"count":18,"type":"VEC3"},{"bufferView":40,"componentType":5123,"count":24,"type":"SCALAR"},{"bufferView":41,"componentType":5126,"count":260,"type":"VEC3","min":[4.85811,-20.0701,0.5072024],"max":[24.7786,0.7018703,11.132002]},{"bufferView":42,"componentType":5126,"count":260,"type":"VEC3"},{"bufferView":43,"componentType":5123,"count":762,"type":"SCALAR"},{"bufferView":44,"componentType":5126,"count":260,"type":"VEC3","min":[9.60467,-15.123598,2.6901615],"max":[20.1091,-4.2950096,8.771492]},{"bufferView":45,"componentType":5126,"count":260,"type":"VEC3"},{"bufferView":46,"componentType":5123,"count":762,"type":"SCALAR"},{"bufferView":47,"componentType":5126,"count":36,"type":"VEC3","min":[-14.438,6.10638,1.4716295],"max":[0.221568,14.1266,4.002778]},{"bufferView":48,"componentType":5126,"count":36,"type":"VEC3"},{"bufferView":49,"componentType":5123,"count":60,"type":"SCALAR"},{"bufferView":50,"componentType":5126,"count":36,"type":"VEC3","min":[-0.241279,6.10638,1.4716295],"max":[14.4182,14.1266,4.002778]},{"bufferView":51,"componentType":5126,"count":36,"type":"VEC3"},{"bufferView":52,"componentType":5123,"count":60,"type":"SCALAR"},{"bufferView":53,"componentType":5126,"count":260,"type":"VEC3","min":[-24.7983,-20.0701,0.5072024],"max":[-4.87782,0.7018703,11.132002]},{"bufferView":54,"componentType":5126,"count":260,"type":"VEC3"},{"bufferView":55,"componentType":5123,"count":762,"type":"SCALAR"},{"bufferView":56,"componentType":5126,"count":18,"type":"VEC3","min":[-4.22221,0.14105509,0.285883],"max":[4.55079,7.69296,2.22361]},{"bufferView":57,"componentType":5126,"count":18,"type":"VEC3"},{"bufferView":58,"componentType":5123,"count":24,"type":"SCALAR"},{"bufferView":59,"componentType":5126,"count":260,"type":"VEC3","min":[-20.1288,-15.123598,2.6901615],"max":[-9.62438,-4.2950096,8.771492]},{"bufferView":60,"componentType":5126,"count":260,"type":"VEC3"},{"bufferView":61,"componentType":5123,"count":762,"type":"SCALAR"}],"bufferViews":[{"target":34962,"buffer":0,"byteLength":168,"byteOffset":0},{"target":34962,"buffer":0,"byteLength":168,"byteOffset":168},{"target":34962,"buffer":0,"byteLength":112,"byteOffset":336},{"target":34963,"buffer":0,"byteLength":216,"byteOffset":448},{"target":34962,"buffer":0,"byteLength":168,"byteOffset":664},{"target":34962,"buffer":0,"byteLength":168,"byteOffset":832},{"target":34962,"buffer":0,"byteLength":112,"byteOffset":1000},{"target":34963,"buffer":0,"byteLength":216,"byteOffset":1112},{"target":34962,"buffer":0,"byteLength":10056,"byteOffset":1328},{"target":34962,"buffer":0,"byteLength":10056,"byteOffset":11384},{"target":34963,"buffer":0,"byteLength":8892,"byteOffset":21440},{"target":34962,"buffer":0,"byteLength":3120,"byteOffset":30332},{"target":34962,"buffer":0,"byteLength":3120,"byteOffset":33452},{"target":34963,"buffer":0,"byteLength":1524,"byteOffset":36572},{"target":34962,"buffer":0,"byteLength":5628,"byteOffset":38096},{"target":34962,"buffer":0,"byteLength":5628,"byteOffset":43724},{"target":34963,"buffer":0,"byteLength":4680,"byteOffset":49352},{"target":34962,"buffer":0,"byteLength":3120,"byteOffset":54032},{"target":34962,"buffer":0,"byteLength":3120,"byteOffset":57152},{"target":34963,"buffer":0,"byteLength":1524,"byteOffset":60272},{"target":34962,"buffer":0,"byteLength":216,"byteOffset":61796},{"target":34962,"buffer":0,"byteLength":216,"byteOffset":62012},{"target":34963,"buffer":0,"byteLength":48,"byteOffset":62228},{"target":34962,"buffer":0,"byteLength":5628,"byteOffset":62276},{"target":34962,"buffer":0,"byteLength":5628,"byteOffset":67904},{"target":34963,"buffer":0,"byteLength":4680,"byteOffset":73532},{"target":34962,"buffer":0,"byteLength":3120,"byteOffset":78212},{"target":34962,"buffer":0,"byteLength":3120,"byteOffset":81332},{"target":34963,"buffer":0,"byteLength":1524,"byteOffset":84452},{"target":34962,"buffer":0,"byteLength":5628,"byteOffset":85976},{"target":34962,"buffer":0,"byteLength":5628,"byteOffset":91604},{"target":34963,"buffer":0,"byteLength":4680,"byteOffset":97232},{"target":34962,"buffer":0,"byteLength":5544,"byteOffset":101912},{"target":34962,"buffer":0,"byteLength":5544,"byteOffset":107456},{"target":34963,"buffer":0,"byteLength":1800,"byteOffset":113000},{"target":34962,"buffer":0,"byteLength":5628,"byteOffset":114800},{"target":34962,"buffer":0,"byteLength":5628,"byteOffset":120428},{"target":34963,"buffer":0,"byteLength":4680,"byteOffset":126056},{"target":34962,"buffer":0,"byteLength":216,"byteOffset":130736},{"target":34962,"buffer":0,"byteLength":216,"byteOffset":130952},{"target":34963,"buffer":0,"byteLength":48,"byteOffset":131168},{"target":34962,"buffer":0,"byteLength":3120,"byteOffset":131216},{"target":34962,"buffer":0,"byteLength":3120,"byteOffset":134336},{"target":34963,"buffer":0,"byteLength":1524,"byteOffset":137456},{"target":34962,"buffer":0,"byteLength":3120,"byteOffset":138980},{"target":34962,"buffer":0,"byteLength":3120,"byteOffset":142100},{"target":34963,"buffer":0,"byteLength":1524,"byteOffset":145220},{"target":34962,"buffer":0,"byteLength":432,"byteOffset":146744},{"target":34962,"buffer":0,"byteLength":432,"byteOffset":147176},{"target":34963,"buffer":0,"byteLength":120,"byteOffset":147608},{"target":34962,"buffer":0,"byteLength":432,"byteOffset":147728},{"target":34962,"buffer":0,"byteLength":432,"byteOffset":148160},{"target":34963,"buffer":0,"byteLength":120,"byteOffset":148592},{"target":34962,"buffer":0,"byteLength":3120,"byteOffset":148712},{"target":34962,"buffer":0,"byteLength":3120,"byteOffset":151832},{"target":34963,"buffer":0,"byteLength":1524,"byteOffset":154952},{"target":34962,"buffer":0,"byteLength":216,"byteOffset":156476},{"target":34962,"buffer":0,"byteLength":216,"byteOffset":156692},{"target":34963,"buffer":0,"byteLength":48,"byteOffset":156908},{"target":34962,"buffer":0,"byteLength":3120,"byteOffset":156956},{"target":34962,"buffer":0,"byteLength":3120,"byteOffset":160076},{"target":34963,"buffer":0,"byteLength":1524,"byteOffset":163196}],"buffers":[{"byteLength":164720,"uri":"data:application/octet-stream;base64,"}]}